inDegrees=yes
name=ik_S41_A13_T02
DataType=double
version=3
OpenSimVersion=4.3-2021-08-27-4bc7ad9
endheader
time	pelvis_tilt	pelvis_list	pelvis_rotation	pelvis_tx	pelvis_ty	pelvis_tz	hip_flexion_r	hip_adduction_r	hip_rotation_r	knee_angle_r	knee_angle_r_beta	ankle_angle_r	subtalar_angle_r	mtp_angle_r	hip_flexion_l	hip_adduction_l	hip_rotation_l	knee_angle_l	knee_angle_l_beta	ankle_angle_l	subtalar_angle_l	mtp_angle_l	lumbar_extension	lumbar_bending	lumbar_rotation	arm_flex_r	arm_add_r	arm_rot_r	elbow_flex_r	pro_sup_r	wrist_flex_r	wrist_dev_r	arm_flex_l	arm_add_l	arm_rot_l	elbow_flex_l	pro_sup_l	wrist_flex_l	wrist_dev_l
3.500000000000003	1.563716246508109	-1.681331663304257	49.97312132275578	0	0.9399999999999999	0	23.1843302391254	-8.162610292243306	-7.089641148505071	26.57568727637769	0.463833243953155	0	0	0	23.1843302391254	-8.162610292243306	-7.089641148505071	26.57568727637769	0.463833243953155	0	0	0	1.338570567965267	-1.110423076220429	13.52918557419886	76.01669107373014	-13.28458426965875	10.23511503072928	-9.954434055553476	131.3517291693839	0	0	85.88258987467066	4.366988008813277	11.0630007125585	44.80626606735169	68.14248781073969	0	0
3.520000000000003	1.51241223175845	-1.697486513859282	49.74738429304421	0	0.9399999999999999	0	23.19751468094335	-8.166158951728621	-7.093256470025613	26.58872438608367	0.464060784442468	0	0	0	23.19751468094335	-8.166158951728621	-7.093256470025613	26.58872438608367	0.464060784442468	0	0	0	1.295974577540025	-1.085297631394504	13.66051446972858	76.90654240736723	-13.19485888494689	10.15034822473663	-9.951989472961102	127.1739177618826	0	0	85.9437724916656	4.37067976938697	11.01486735949888	44.29113854324416	67.71697314788392	0	0
3.540000000000003	1.472085963491036	-1.720040052903813	49.57342443709269	0	0.9399999999999999	0	23.21077871423898	-8.169741511931241	-7.09690209593369	26.60178808817784	0.464288789056511	0	0	0	23.21077871423898	-8.169741511931241	-7.09690209593369	26.60178808817784	0.464288789056511	0	0	0	1.253902084709769	-1.070553882837533	13.7713641531714	77.82748824660817	-13.56949667626199	10.18976592414816	-9.95405513316784	127.713993866531	0	0	85.74225975810653	4.92876497709894	10.42028525293717	43.60550349729382	68.419918311538	0	0
3.560000000000003	1.433083496120789	-1.724566011928188	49.52895420398712	0	0.9399999999999999	0	23.6805590273962	-8.257939465228743	-7.202053391790169	27.18043834472365	0.4743881412507452	0	0	0	23.6805590273962	-8.257939465228743	-7.202053391790169	27.18043834472365	0.4743881412507452	0	0	0	1.21455714449415	-1.077300326402686	13.72425256094261	79.23917719039545	-12.94544039683605	10.08256445075937	-9.935879728009013	117.170802507343	0	0	85.77526390662084	4.884284086482683	10.40954371731291	43.21940765880427	68.43478128384247	0	0
3.580000000000003	1.385813669452808	-1.746271009747635	49.28120449769627	0	0.9399999999999999	0	23.69102650691424	-8.260688958083174	-7.20489130837323	27.19072906599623	0.4745677482193568	0	0	0	23.69102650691424	-8.260688958083174	-7.20489130837323	27.19072906599623	0.4745677482193568	0	0	0	1.17075041184419	-1.057569302442566	13.90616244203115	80.50994309510193	-13.06119049773492	10.18212718874173	-9.93032428220322	115.0236276138948	0	0	85.53624897065167	5.539818314998844	10.20314475796733	42.65211111739188	68.93903517476576	0	0
3.600000000000003	1.343126983734894	-1.774295854314204	49.15665115549779	0	0.9399999999999999	0	23.70139287404202	-8.263397729101243	-7.207693317962726	27.20095827587739	0.4747462816116605	0	0	0	23.70139287404202	-8.263397729101243	-7.207693317962726	27.20095827587739	0.4747462816116605	0	0	0	1.123019910411585	-1.045472201598655	13.98204258925528	82.0557739908991	-13.0151980972658	10.6137794948424	-9.903548842106039	111.138701882899	0	0	85.6192247578399	5.54331521912069	10.17065635020615	42.42360601669392	68.78444113935556	0	0
3.620000000000003	1.302444100292107	-1.77951082137833	48.84213032953862	0	0.9399999999999999	0	23.71334503957874	-8.266525525623443	-7.210927522610455	27.21272642083609	0.4749516744880418	0	0	0	23.71334503957874	-8.266525525623443	-7.210927522610455	27.21272642083609	0.4749516744880418	0	0	0	1.097744223596445	-1.022480160302099	14.22526234322466	83.61207787454427	-12.9171148738618	11.11985648389094	-9.824267827170837	107.5255038359595	0	0	85.31656252907786	6.197500605186299	10.23167894352806	41.85433990206217	68.35459955369272	0	0
3.640000000000003	1.270253108387363	-1.791130346672655	48.67151086379896	0	0.9399999999999999	0	23.72542240210902	-8.269682883189843	-7.214194210284777	27.22461715445769	0.4751592069402162	0	0	0	23.72542240210902	-8.269682883189843	-7.214194210284777	27.22461715445769	0.4751592069402162	0	0	0	1.06960792111176	-1.007069619684207	14.31590085912654	85.12496531312698	-12.80978028115214	11.57914605846948	-9.298731921164165	104.5191770641891	0	0	85.2321338995516	6.455758912696013	10.27644722704744	41.63583140059686	68.26343669276118	0	0
3.660000000000003	1.233373689277958	-1.810470044439014	48.62723175020064	0	0.9399999999999999	0	23.77837260906769	-8.283503044412193	-7.228515669546174	27.2765862569519	0.4760662388880467	0	0	0	23.77837260906769	-8.283503044412193	-7.228515669546174	27.2765862569519	0.4760662388880467	0	0	0	1.031425350930399	-0.9948985607415516	14.30898865185486	85.27242373394591	-12.62628261519016	11.45293739715749	-6.190390831965938	102.3233742485861	0	0	85.19843692532157	6.790672987233411	10.28617455270166	41.2093609813956	67.93482464560266	0	0
3.680000000000003	1.185723113076109	-1.81111639777301	48.58567825437694	0	0.9399999999999999	0	24.19818214566292	-8.358474794574692	-7.320152725004756	27.79383690797477	0.4850939658064799	0	0	0	24.19818214566292	-8.358474794574692	-7.320152725004756	27.79383690797477	0.4850939658064799	0	0	0	0.9792057219290563	-0.9758825326176449	14.2582748358183	86.41878962700565	-12.66637832436499	11.80797211130125	-3.475288570101871	100.4172544090316	0	0	85.22257645010711	7.085095170244705	10.18268548149692	40.74895686790434	67.71461244652886	0	0
3.700000000000003	1.146402757628085	-1.794437250858421	48.80089699969363	0	0.9399999999999999	0	24.98839468869675	-8.489317872301644	-7.486684011941097	28.73858319448127	0.501582899102008	0	0	0	24.98839468869675	-8.489317872301644	-7.486684011941097	28.73858319448127	0.501582899102008	0	0	0	0.9403599730696572	-0.9807882853728049	14.00151232134299	86.43472416970941	-12.55470240258784	11.6864595166479	0.1627536976549962	98.78952675692793	0	0	85.23646943626404	7.399046769791392	10.05777361791812	40.24670686802074	67.77370283313557	0	0
3.720000000000003	1.121246258003573	-1.797315591340621	48.87194484331566	0	0.9399999999999999	0	25.3974060386016	-8.558687394028897	-7.573369077902365	29.24304968560931	0.510387500338175	0	0	0	25.3974060386016	-8.558687394028897	-7.573369077902365	29.24304968560931	0.510387500338175	0	0	0	0.9031500008574357	-0.9800358582614169	13.89485399791785	88.50208638989113	-12.58586857363718	12.76858103027718	3.477826346126879	95.80345008788694	0	0	85.2655155437788	7.73197235379031	9.978002896843222	39.7117257190587	67.79543994794003	0	0
3.740000000000003	1.086435522429694	-1.783467089550804	48.73615718863056	0	0.9399999999999999	0	25.41832185479642	-8.563676941957377	-7.578776864609381	29.26339817312998	0.5107426484432117	0	0	0	25.41832185479642	-8.563676941957377	-7.578776864609381	29.26339817312998	0.5107426484432117	0	0	0	0.891343279977137	-0.9481215378659581	13.96353884821821	89.35335304282422	-12.4602135708349	13.39169731520654	5.830938422305025	94.10302662747223	0	0	85.3098052027745	8.318312196646996	9.982249494624213	39.11194099256539	67.62622597441133	0	0
3.760000000000003	1.075242016545509	-1.779568539052806	48.701463139149	0	0.9399999999999999	0	25.43670638045117	-8.568051554369388	-7.583524398277484	29.28129313602083	0.5110549744651793	0	0	0	25.43670638045117	-8.568051554369388	-7.583524398277484	29.28129313602083	0.5110549744651793	0	0	0	0.8858949310189271	-0.9382041206547849	13.93615825865384	90.12626881654776	-12.29324165459435	13.79090607822533	8.160838909808009	92.90073504728463	0	0	85.39304264391684	8.610618577886152	9.990754476168155	38.50761042350065	67.26979931002519	0	0
3.780000000000003	1.060023856770758	-1.78525364175824	48.6766882367927	0	0.9399999999999999	0	25.44454421382659	-8.569913771632505	-7.585546049095957	29.28894016968595	0.5111884403806465	0	0	0	25.44454421382659	-8.569913771632505	-7.585546049095957	29.28894016968595	0.5111884403806465	0	0	0	0.8714170866995328	-0.9305990240112798	13.92526112841305	90.88835029036382	-12.17362885092823	14.05276930626482	10.24124598471933	92.42716154665708	0	0	85.504201169232	8.882447502231905	10.10033297675082	38.09652080023911	66.9155431726784	0	0
3.800000000000003	1.060348376421756	-1.76123357094564	48.58516300078686	0	0.9399999999999999	0	25.45214597284552	-8.571720824814822	-7.587507708441317	29.29634850342006	0.5113177401963933	0	0	0	25.45214597284552	-8.571720824814822	-7.587507708441317	29.29634850342006	0.5113177401963933	0	0	0	0.8890561677319471	-0.9156309625358892	13.91767214367939	92.16681945161817	-12.03423600739502	14.64029615953561	11.5553508760842	92.11772053183557	0	0	85.49809219823224	9.061538437468389	10.23887412756015	37.81313080697625	66.67264207562927	0	0
3.820000000000003	1.057559257387809	-1.736579883128198	48.60217488452908	0	0.9399999999999999	0	25.4630300568565	-8.57431143303984	-7.590319123102444	29.30693441423496	0.5115024991944357	0	0	0	25.4630300568565	-8.57431143303984	-7.590319123102444	29.30693441423496	0.5115024991944357	0	0	0	0.9037964446739534	-0.8980526541796301	13.84154303786704	92.66508651561689	-11.95813054152515	14.92625310519929	13.33298663254842	92.02522642140806	0	0	85.47858734520138	8.984506024195143	10.16564873718421	37.67913095428064	66.87885180739592	0	0
3.840000000000003	1.046845236997485	-1.730369244669624	48.57338632151034	0	0.9399999999999999	0	25.47075651609961	-8.576142284798799	-7.59230971500952	29.31447267143971	0.5116340666025208	0	0	0	25.47075651609961	-8.576142284798799	-7.59230971500952	29.31447267143971	0.5116340666025208	0	0	0	0.9010191064655895	-0.8861933014454774	13.83244396857854	93.10328436360359	-11.89794188051271	15.27674591585968	14.93066938567527	91.95135413699133	0	0	85.60664882755668	9.197337915757311	10.12666028240093	37.41391340048423	67.36144040742269	0	0
